<mxfile host="app.diagrams.net" modified="2022-09-19T14:00:18.779Z" agent="5.0 (Macintosh; Intel Mac OS X 10_15_7) AppleWebKit/605.1.15 (KHTML, like Gecko) Version/15.6.1 Safari/605.1.15" etag="nQLt5hcWBGqLxaJo3-G-" version="20.3.2" type="github">
  <diagram id="7FvdrSsq1qoto7csCiVJ" name="Page-1">
    <mxGraphModel dx="940" dy="1728" grid="1" gridSize="10" guides="1" tooltips="1" connect="1" arrows="1" fold="1" page="1" pageScale="1" pageWidth="827" pageHeight="1169" math="0" shadow="0">
      <root>
        <mxCell id="0" />
        <mxCell id="1" parent="0" />
        <mxCell id="qfWSkvdO2IdB_Pi6DIVs-19" style="edgeStyle=orthogonalEdgeStyle;rounded=0;orthogonalLoop=1;jettySize=auto;html=1;exitX=1;exitY=0.3333333333333333;exitDx=0;exitDy=0;exitPerimeter=0;entryX=0;entryY=0.5;entryDx=0;entryDy=0;" edge="1" parent="1" source="pMhiuUbFovXFU0d_4aaN-1" target="qfWSkvdO2IdB_Pi6DIVs-3">
          <mxGeometry relative="1" as="geometry" />
        </mxCell>
        <mxCell id="qfWSkvdO2IdB_Pi6DIVs-21" style="edgeStyle=orthogonalEdgeStyle;rounded=0;orthogonalLoop=1;jettySize=auto;html=1;" edge="1" parent="1" source="pMhiuUbFovXFU0d_4aaN-1" target="qfWSkvdO2IdB_Pi6DIVs-2">
          <mxGeometry relative="1" as="geometry" />
        </mxCell>
        <mxCell id="qfWSkvdO2IdB_Pi6DIVs-22" style="edgeStyle=orthogonalEdgeStyle;rounded=0;orthogonalLoop=1;jettySize=auto;html=1;entryX=0.007;entryY=0.6;entryDx=0;entryDy=0;entryPerimeter=0;" edge="1" parent="1" source="pMhiuUbFovXFU0d_4aaN-1" target="qfWSkvdO2IdB_Pi6DIVs-9">
          <mxGeometry relative="1" as="geometry" />
        </mxCell>
        <mxCell id="qfWSkvdO2IdB_Pi6DIVs-23" style="edgeStyle=orthogonalEdgeStyle;rounded=0;orthogonalLoop=1;jettySize=auto;html=1;entryX=0;entryY=0.671;entryDx=0;entryDy=0;entryPerimeter=0;" edge="1" parent="1" source="pMhiuUbFovXFU0d_4aaN-1" target="qfWSkvdO2IdB_Pi6DIVs-10">
          <mxGeometry relative="1" as="geometry" />
        </mxCell>
        <mxCell id="pMhiuUbFovXFU0d_4aaN-1" value="User" style="shape=umlActor;verticalLabelPosition=bottom;verticalAlign=top;html=1;outlineConnect=0;" parent="1" vertex="1">
          <mxGeometry x="50" y="-250" width="80" height="140" as="geometry" />
        </mxCell>
        <mxCell id="pMhiuUbFovXFU0d_4aaN-2" value="" style="ellipse;html=1;shape=endState;fillColor=#000000;strokeColor=#ff0000;" parent="1" vertex="1">
          <mxGeometry x="225" y="575" width="30" height="30" as="geometry" />
        </mxCell>
        <mxCell id="pMhiuUbFovXFU0d_4aaN-3" value="" style="ellipse;html=1;shape=startState;fillColor=#000000;strokeColor=#ff0000;" parent="1" vertex="1">
          <mxGeometry x="384" y="50" width="30" height="30" as="geometry" />
        </mxCell>
        <mxCell id="pMhiuUbFovXFU0d_4aaN-4" value="" style="edgeStyle=orthogonalEdgeStyle;html=1;verticalAlign=bottom;endArrow=open;endSize=8;strokeColor=#ff0000;rounded=0;" parent="1" source="pMhiuUbFovXFU0d_4aaN-3" edge="1">
          <mxGeometry relative="1" as="geometry">
            <mxPoint x="399" y="140" as="targetPoint" />
          </mxGeometry>
        </mxCell>
        <mxCell id="pMhiuUbFovXFU0d_4aaN-5" value="Receive request borrow book" style="rounded=1;whiteSpace=wrap;html=1;arcSize=40;fontColor=#000000;fillColor=#ffffc0;strokeColor=#ff0000;" parent="1" vertex="1">
          <mxGeometry x="339" y="150" width="120" height="40" as="geometry" />
        </mxCell>
        <mxCell id="pMhiuUbFovXFU0d_4aaN-6" value="" style="edgeStyle=orthogonalEdgeStyle;html=1;verticalAlign=bottom;endArrow=open;endSize=8;strokeColor=#ff0000;rounded=0;" parent="1" source="pMhiuUbFovXFU0d_4aaN-5" edge="1">
          <mxGeometry relative="1" as="geometry">
            <mxPoint x="399" y="250" as="targetPoint" />
          </mxGeometry>
        </mxCell>
        <mxCell id="pMhiuUbFovXFU0d_4aaN-7" value="check library card" style="rounded=1;whiteSpace=wrap;html=1;arcSize=40;fontColor=#000000;fillColor=#ffffc0;strokeColor=#ff0000;" parent="1" vertex="1">
          <mxGeometry x="339" y="250" width="120" height="40" as="geometry" />
        </mxCell>
        <mxCell id="pMhiuUbFovXFU0d_4aaN-8" value="" style="edgeStyle=orthogonalEdgeStyle;html=1;verticalAlign=bottom;endArrow=open;endSize=8;strokeColor=#ff0000;rounded=0;" parent="1" edge="1">
          <mxGeometry relative="1" as="geometry">
            <mxPoint x="400" y="370.253164556962" as="targetPoint" />
            <mxPoint x="400" y="290" as="sourcePoint" />
            <Array as="points">
              <mxPoint x="399" y="335" />
              <mxPoint x="400" y="335" />
            </Array>
          </mxGeometry>
        </mxCell>
        <mxCell id="pMhiuUbFovXFU0d_4aaN-10" value="Solve &amp;nbsp;invalid card" style="rounded=1;whiteSpace=wrap;html=1;arcSize=40;fontColor=#000000;fillColor=#ffffc0;strokeColor=#ff0000;" parent="1" vertex="1">
          <mxGeometry x="180" y="370" width="120" height="40" as="geometry" />
        </mxCell>
        <mxCell id="pMhiuUbFovXFU0d_4aaN-11" value="" style="edgeStyle=orthogonalEdgeStyle;html=1;verticalAlign=bottom;endArrow=open;endSize=8;strokeColor=#ff0000;rounded=0;entryX=0.5;entryY=0;entryDx=0;entryDy=0;" parent="1" source="pMhiuUbFovXFU0d_4aaN-10" target="pMhiuUbFovXFU0d_4aaN-2" edge="1">
          <mxGeometry relative="1" as="geometry">
            <mxPoint x="240" y="460" as="targetPoint" />
          </mxGeometry>
        </mxCell>
        <mxCell id="pMhiuUbFovXFU0d_4aaN-13" value="Check previous borrow" style="rounded=1;whiteSpace=wrap;html=1;arcSize=40;fontColor=#000000;fillColor=#ffffc0;strokeColor=#ff0000;" parent="1" vertex="1">
          <mxGeometry x="520" y="370" width="120" height="40" as="geometry" />
        </mxCell>
        <mxCell id="pMhiuUbFovXFU0d_4aaN-14" value="" style="edgeStyle=orthogonalEdgeStyle;html=1;verticalAlign=bottom;endArrow=open;endSize=8;strokeColor=#ff0000;rounded=0;" parent="1" source="pMhiuUbFovXFU0d_4aaN-13" edge="1">
          <mxGeometry relative="1" as="geometry">
            <mxPoint x="580" y="470" as="targetPoint" />
          </mxGeometry>
        </mxCell>
        <mxCell id="pMhiuUbFovXFU0d_4aaN-16" value="Condition" style="rhombus;whiteSpace=wrap;html=1;fillColor=#ffffc0;strokeColor=#ff0000;" parent="1" vertex="1">
          <mxGeometry x="540" y="470" width="80" height="40" as="geometry" />
        </mxCell>
        <mxCell id="pMhiuUbFovXFU0d_4aaN-17" value="no" style="edgeStyle=orthogonalEdgeStyle;html=1;align=left;verticalAlign=bottom;endArrow=open;endSize=8;strokeColor=#ff0000;rounded=0;" parent="1" source="pMhiuUbFovXFU0d_4aaN-16" edge="1">
          <mxGeometry x="-1" relative="1" as="geometry">
            <mxPoint x="720" y="490" as="targetPoint" />
          </mxGeometry>
        </mxCell>
        <mxCell id="pMhiuUbFovXFU0d_4aaN-18" value="yes" style="edgeStyle=orthogonalEdgeStyle;html=1;align=left;verticalAlign=top;endArrow=open;endSize=8;strokeColor=#ff0000;rounded=0;" parent="1" source="pMhiuUbFovXFU0d_4aaN-16" edge="1">
          <mxGeometry x="-1" relative="1" as="geometry">
            <mxPoint x="400" y="490" as="targetPoint" />
          </mxGeometry>
        </mxCell>
        <mxCell id="pMhiuUbFovXFU0d_4aaN-19" value="Search and take book" style="rounded=1;whiteSpace=wrap;html=1;arcSize=40;fontColor=#000000;fillColor=#ffffc0;strokeColor=#ff0000;" parent="1" vertex="1">
          <mxGeometry x="720" y="470" width="120" height="40" as="geometry" />
        </mxCell>
        <mxCell id="pMhiuUbFovXFU0d_4aaN-20" value="" style="edgeStyle=orthogonalEdgeStyle;html=1;verticalAlign=bottom;endArrow=open;endSize=8;strokeColor=#ff0000;rounded=0;" parent="1" source="pMhiuUbFovXFU0d_4aaN-19" edge="1">
          <mxGeometry relative="1" as="geometry">
            <mxPoint x="780" y="570" as="targetPoint" />
          </mxGeometry>
        </mxCell>
        <mxCell id="pMhiuUbFovXFU0d_4aaN-21" value="Activity" style="rounded=1;whiteSpace=wrap;html=1;arcSize=40;fontColor=#000000;fillColor=#ffffc0;strokeColor=#ff0000;" parent="1" vertex="1">
          <mxGeometry x="720" y="570" width="120" height="40" as="geometry" />
        </mxCell>
        <mxCell id="pMhiuUbFovXFU0d_4aaN-22" value="" style="edgeStyle=orthogonalEdgeStyle;html=1;verticalAlign=bottom;endArrow=open;endSize=8;strokeColor=#ff0000;rounded=0;" parent="1" source="pMhiuUbFovXFU0d_4aaN-21" edge="1">
          <mxGeometry relative="1" as="geometry">
            <mxPoint x="260" y="590" as="targetPoint" />
          </mxGeometry>
        </mxCell>
        <mxCell id="pMhiuUbFovXFU0d_4aaN-23" value="Reject booking request" style="rounded=1;whiteSpace=wrap;html=1;arcSize=40;fontColor=#000000;fillColor=#ffffc0;strokeColor=#ff0000;" parent="1" vertex="1">
          <mxGeometry x="280" y="470" width="120" height="40" as="geometry" />
        </mxCell>
        <mxCell id="pMhiuUbFovXFU0d_4aaN-24" value="" style="edgeStyle=orthogonalEdgeStyle;html=1;verticalAlign=bottom;endArrow=open;endSize=8;strokeColor=#ff0000;rounded=0;entryX=1;entryY=0;entryDx=0;entryDy=0;" parent="1" source="pMhiuUbFovXFU0d_4aaN-23" target="pMhiuUbFovXFU0d_4aaN-2" edge="1">
          <mxGeometry relative="1" as="geometry">
            <mxPoint x="340" y="570" as="targetPoint" />
          </mxGeometry>
        </mxCell>
        <mxCell id="pMhiuUbFovXFU0d_4aaN-25" value="Condition" style="rhombus;whiteSpace=wrap;html=1;fillColor=#ffffc0;strokeColor=#ff0000;" parent="1" vertex="1">
          <mxGeometry x="359" y="370" width="80" height="40" as="geometry" />
        </mxCell>
        <mxCell id="pMhiuUbFovXFU0d_4aaN-26" value="no" style="edgeStyle=orthogonalEdgeStyle;html=1;align=left;verticalAlign=bottom;endArrow=open;endSize=8;strokeColor=#ff0000;rounded=0;" parent="1" source="pMhiuUbFovXFU0d_4aaN-25" edge="1">
          <mxGeometry x="-1" relative="1" as="geometry">
            <mxPoint x="520" y="390" as="targetPoint" />
          </mxGeometry>
        </mxCell>
        <mxCell id="pMhiuUbFovXFU0d_4aaN-27" value="yes" style="edgeStyle=orthogonalEdgeStyle;html=1;align=left;verticalAlign=top;endArrow=open;endSize=8;strokeColor=#ff0000;rounded=0;entryX=1;entryY=0.5;entryDx=0;entryDy=0;" parent="1" source="pMhiuUbFovXFU0d_4aaN-25" target="pMhiuUbFovXFU0d_4aaN-10" edge="1">
          <mxGeometry x="-1" relative="1" as="geometry">
            <mxPoint x="340" y="390" as="targetPoint" />
          </mxGeometry>
        </mxCell>
        <mxCell id="qfWSkvdO2IdB_Pi6DIVs-2" value="Borrow&amp;nbsp;" style="ellipse;whiteSpace=wrap;html=1;" vertex="1" parent="1">
          <mxGeometry x="360" y="-270" width="140" height="70" as="geometry" />
        </mxCell>
        <mxCell id="qfWSkvdO2IdB_Pi6DIVs-3" value="Assign &amp;nbsp;membership" style="ellipse;whiteSpace=wrap;html=1;" vertex="1" parent="1">
          <mxGeometry x="360" y="-370" width="140" height="70" as="geometry" />
        </mxCell>
        <mxCell id="qfWSkvdO2IdB_Pi6DIVs-9" value="Search &amp;nbsp;document" style="ellipse;whiteSpace=wrap;html=1;" vertex="1" parent="1">
          <mxGeometry x="359" y="-170" width="140" height="70" as="geometry" />
        </mxCell>
        <mxCell id="qfWSkvdO2IdB_Pi6DIVs-10" value="Return" style="ellipse;whiteSpace=wrap;html=1;" vertex="1" parent="1">
          <mxGeometry x="360" y="-70" width="140" height="70" as="geometry" />
        </mxCell>
        <mxCell id="qfWSkvdO2IdB_Pi6DIVs-11" value="Check card information" style="ellipse;whiteSpace=wrap;html=1;" vertex="1" parent="1">
          <mxGeometry x="600" y="-200" width="140" height="70" as="geometry" />
        </mxCell>
        <mxCell id="qfWSkvdO2IdB_Pi6DIVs-12" value="Buy document" style="ellipse;whiteSpace=wrap;html=1;" vertex="1" parent="1">
          <mxGeometry x="600" y="-70" width="140" height="70" as="geometry" />
        </mxCell>
        <object label="Actor" NXB="" id="qfWSkvdO2IdB_Pi6DIVs-13">
          <mxCell style="shape=umlActor;verticalLabelPosition=bottom;verticalAlign=top;html=1;" vertex="1" parent="1">
            <mxGeometry x="850" y="-170" width="80" height="150" as="geometry" />
          </mxCell>
        </object>
        <mxCell id="qfWSkvdO2IdB_Pi6DIVs-24" value="Use" style="endArrow=open;endSize=12;dashed=1;html=1;rounded=0;" edge="1" parent="1" source="qfWSkvdO2IdB_Pi6DIVs-10">
          <mxGeometry width="160" relative="1" as="geometry">
            <mxPoint x="470" y="-135.5" as="sourcePoint" />
            <mxPoint x="630" y="-135.5" as="targetPoint" />
          </mxGeometry>
        </mxCell>
        <mxCell id="qfWSkvdO2IdB_Pi6DIVs-25" value="Use" style="endArrow=open;endSize=12;dashed=1;html=1;rounded=0;exitX=1;exitY=0.5;exitDx=0;exitDy=0;" edge="1" parent="1" source="qfWSkvdO2IdB_Pi6DIVs-2" target="qfWSkvdO2IdB_Pi6DIVs-11">
          <mxGeometry width="160" relative="1" as="geometry">
            <mxPoint x="410" y="-190" as="sourcePoint" />
            <mxPoint x="570" y="-190" as="targetPoint" />
          </mxGeometry>
        </mxCell>
        <mxCell id="qfWSkvdO2IdB_Pi6DIVs-27" value="Extends" style="endArrow=block;endSize=16;endFill=0;html=1;rounded=0;exitX=0.571;exitY=-0.057;exitDx=0;exitDy=0;exitPerimeter=0;" edge="1" parent="1" source="qfWSkvdO2IdB_Pi6DIVs-9">
          <mxGeometry width="160" relative="1" as="geometry">
            <mxPoint x="440" y="-180" as="sourcePoint" />
            <mxPoint x="440" y="-200" as="targetPoint" />
          </mxGeometry>
        </mxCell>
      </root>
    </mxGraphModel>
  </diagram>
</mxfile>
